<svg width="54" height="56" viewBox="0 0 54 56" fill="none" xmlns="http://www.w3.org/2000/svg">
<path d="M18.9017 24.3004L24.3006 29.6993L36.4481 17.5518M21.3312 46.4359L25.2724 51.6908C25.8585 52.4723 26.1515 52.863 26.5108 53.0027C26.8254 53.1251 27.1746 53.1251 27.4892 53.0027C27.8485 52.863 28.1415 52.4723 28.7276 51.6908L32.6688 46.4359C33.4602 45.3808 33.8558 44.8532 34.3385 44.4504C34.982 43.9134 35.7416 43.5336 36.5574 43.341C37.1692 43.1966 37.8286 43.1966 39.1475 43.1966C42.9209 43.1966 44.8075 43.1966 46.2958 42.5801C48.2801 41.7582 49.8566 40.1816 50.6786 38.1973C51.295 36.7091 51.295 34.8224 51.295 31.049V15.6622C51.295 11.1267 51.295 8.85895 50.4124 7.12662C49.6359 5.60282 48.3971 4.36393 46.8733 3.58751C45.1409 2.70484 42.8732 2.70484 38.3377 2.70484H15.6623C11.1268 2.70484 8.85907 2.70484 7.12674 3.58751C5.60294 4.36393 4.36405 5.60282 3.58763 7.12662C2.70497 8.85895 2.70497 11.1267 2.70497 15.6622V31.049C2.70497 34.8224 2.70497 36.7091 3.32142 38.1973C4.14335 40.1816 5.71989 41.7582 7.70421 42.5801C9.19245 43.1966 11.0791 43.1966 14.8525 43.1966C16.1714 43.1966 16.8308 43.1966 17.4426 43.341C18.2584 43.5336 19.018 43.9134 19.6615 44.4504C20.1442 44.8532 20.5398 45.3808 21.3312 46.4359Z" stroke="#758195" stroke-width="2.672" stroke-linecap="round" stroke-linejoin="round"/>
</svg>
