<svg width="54" height="56" viewBox="0 0 54 56" fill="none" xmlns="http://www.w3.org/2000/svg">
<path d="M18.9016 24.3006L24.3005 29.6996L36.4482 17.552M21.3311 46.4363L25.2723 51.6913C25.8584 52.4728 26.1515 52.8635 26.5108 53.0032C26.8254 53.1256 27.1746 53.1256 27.4892 53.0032C27.8485 52.8635 28.1416 52.4728 28.7277 51.6913L32.6689 46.4363C33.4602 45.3812 33.8559 44.8536 34.3385 44.4509C34.982 43.9138 35.7417 43.534 36.5575 43.3414C37.1693 43.197 37.8287 43.197 39.1476 43.197C42.921 43.197 44.8077 43.197 46.296 42.5805C48.2803 41.7586 49.8569 40.182 50.6788 38.1977C51.2953 36.7094 51.2953 34.8227 51.2953 31.0493V15.6623C51.2953 11.1268 51.2953 8.85903 50.4126 7.12668C49.6362 5.60287 48.3973 4.36397 46.8734 3.58754C45.1411 2.70487 42.8733 2.70487 38.3378 2.70487H15.6622C11.1267 2.70487 8.8589 2.70487 7.12656 3.58754C5.60274 4.36397 4.36384 5.60287 3.58742 7.12668C2.70475 8.85903 2.70475 11.1268 2.70475 15.6623V31.0493C2.70475 34.8227 2.70475 36.7094 3.3212 38.1977C4.14314 40.182 5.71969 41.7586 7.70403 42.5805C9.19229 43.197 11.079 43.197 14.8524 43.197C16.1713 43.197 16.8307 43.197 17.4425 43.3414C18.2583 43.534 19.018 43.9138 19.6615 44.4509C20.1441 44.8536 20.5398 45.3812 21.3311 46.4363Z" stroke="#758195" stroke-width="2.672" stroke-linecap="round" stroke-linejoin="round"/>
</svg>
