<svg width="54" height="56" viewBox="0 0 54 56" fill="none" xmlns="http://www.w3.org/2000/svg">
<path d="M16.2023 42.4758H37.7977M24.3483 4.04685L6.04003 18.2866C4.8162 19.2385 4.20428 19.7144 3.76344 20.3105C3.37293 20.8385 3.08203 21.4332 2.90502 22.0656C2.70519 22.7795 2.70519 23.5548 2.70519 25.1052V44.6353C2.70519 47.659 2.70519 49.1708 3.29363 50.3257C3.81123 51.3415 4.63715 52.1674 5.65301 52.685C6.80789 53.2735 8.31971 53.2735 11.3433 53.2735H42.6567C45.6803 53.2735 47.1921 53.2735 48.347 52.685C49.3628 52.1674 50.1888 51.3415 50.7064 50.3257C51.2948 49.1708 51.2948 47.659 51.2948 44.6353V25.1052C51.2948 23.5548 51.2948 22.7795 51.095 22.0656C50.918 21.4332 50.6271 20.8385 50.2366 20.3105C49.7957 19.7144 49.1838 19.2385 47.96 18.2866L29.6517 4.04685C28.7033 3.30922 28.2291 2.94041 27.7055 2.79864C27.2435 2.67355 26.7565 2.67355 26.2945 2.79864C25.7709 2.94041 25.2967 3.30922 24.3483 4.04685Z" stroke="#156FEF" stroke-width="2.672" stroke-linecap="round" stroke-linejoin="round"/>
</svg>
