<svg width="43" height="43" viewBox="0 0 43 43" fill="none" xmlns="http://www.w3.org/2000/svg">
<path d="M18.476 24.5239L39.7372 3.26277M18.7343 25.1882L24.0559 38.8723C24.5247 40.0778 24.7591 40.6806 25.0969 40.8565C25.3897 41.0091 25.7385 41.0093 26.0314 40.8571C26.3694 40.6815 26.6045 40.079 27.0747 38.8741L40.4193 4.67856C40.8438 3.59084 41.056 3.04698 40.9399 2.69945C40.8391 2.39765 40.6023 2.1608 40.3005 2.05998C39.953 1.94388 39.4091 2.15612 38.3214 2.5806L4.12584 15.9252C2.92089 16.3954 2.31841 16.6305 2.14284 16.9685C1.99063 17.2615 1.99084 17.6103 2.14339 17.903C2.31936 18.2408 2.92211 18.4752 4.12761 18.944L17.8117 24.2656C18.0564 24.3608 18.1788 24.4083 18.2818 24.4818C18.3731 24.547 18.453 24.6268 18.5181 24.7181C18.5916 24.8212 18.6392 24.9435 18.7343 25.1882Z" stroke="#156FEF" stroke-width="2.004" stroke-linecap="round" stroke-linejoin="round"/>
</svg>
