<svg width="41" height="38" viewBox="0 0 41 38" fill="none" xmlns="http://www.w3.org/2000/svg">
<path d="M37.9264 20.2258C38.419 19.8035 38.6653 19.5924 38.7556 19.3411C38.8348 19.1206 38.8348 18.8794 38.7556 18.6589C38.6653 18.4076 38.419 18.1965 37.9264 17.7742L20.8318 3.12171C19.9837 2.39481 19.5597 2.03136 19.2007 2.02245C18.8887 2.01471 18.5907 2.15178 18.3935 2.39371C18.1666 2.67207 18.1666 3.23055 18.1666 4.3475V13.0157C13.8587 13.7693 9.91592 15.9522 6.9859 19.2298C3.79152 22.8031 2.02451 27.4274 2.02202 32.2204V33.4554C4.13967 30.9044 6.78368 28.8412 9.77297 27.4072C12.4085 26.1428 15.2574 25.3939 18.1666 25.1966V33.6525C18.1666 34.7695 18.1666 35.3279 18.3935 35.6063C18.5907 35.8482 18.8887 35.9853 19.2007 35.9776C19.5597 35.9686 19.9837 35.6052 20.8318 34.8783L37.9264 20.2258Z" stroke="#758195" stroke-width="2.004" stroke-linecap="round" stroke-linejoin="round"/>
</svg>
